<?xml version="1.0" encoding="utf-8"?>
<!-- Generator: Adobe Illustrator 23.0.0, SVG Export Plug-In . SVG Version: 6.00 Build 0)  -->
<svg version="1.1" id="Layer_1" xmlns="http://www.w3.org/2000/svg" xmlns:xlink="http://www.w3.org/1999/xlink" x="0px" y="0px"
	 viewBox="0 0 1024 863" style="enable-background:new 0 0 1024 863;" xml:space="preserve">
<style type="text/css">
	.st0{opacity:0.5;}
	.st1{fill:#F5EB44;}
	.st2{opacity:0.51;}
	.st3{fill:#FFFFFF;}
	.st4{opacity:0.72;fill:#FFFFFF;}
	.st5{fill:url(#SVGID_1_);}
	.st6{fill:url(#SVGID_2_);}
	.st7{fill:url(#SVGID_3_);}
	.st8{fill:url(#SVGID_4_);}
	.st9{fill:#F4EA43;}
</style>
<g class="st0">
	<polygon class="st1" points="302.94,422.75 261.46,399.46 240.9,405.24 282.38,428.53 	"/>
	<polygon class="st1" points="293,293.32 299.01,314.75 340.5,338.04 334.48,316.61 	"/>
	<polygon class="st1" points="74.83,312 116.31,335.29 110.54,314.73 69.05,291.44 	"/>
	<polygon class="st1" points="306.45,341.24 318.32,383.49 287.95,392.02 329.43,415.31 359.8,406.78 347.94,364.53 	"/>
	<polygon class="st1" points="103.1,288.24 94.56,257.86 232.65,219.08 191.17,195.79 53.08,234.57 61.61,264.95 	"/>
	<polygon class="st1" points="200.65,416.54 143.63,432.55 127.62,375.54 86.13,352.25 120.34,474.04 242.13,439.83 	"/>
	<polygon class="st1" points="217.66,188.35 259.14,211.64 272.1,218.91 313.58,242.2 292.55,167.32 	"/>
	<polygon class="st1" points="279.54,245.41 285.56,266.83 327.04,290.12 321.02,268.7 	"/>
</g>
<g class="st2">
	<path class="st3" d="M468.28,424.96h-80.25l28.85-28.85h80.25L468.28,424.96z M402.84,418.83h62.9l16.58-16.59h-62.9L402.84,418.83
		z"/>
	<path class="st3" d="M484,263.45h-80.25l-29.81-29.81h80.25L484,263.45z M406.29,257.32h62.9l-17.54-17.54h-62.9L406.29,257.32z"/>
	<path class="st3" d="M187.87,424.96h-80.25l-28.85-28.85h80.25L187.87,424.96z M110.16,418.83h62.9l-16.58-16.59h-62.9
		L110.16,418.83z"/>
	<path class="st3" d="M520.26,372.97h-80.25l36.63-36.63l-49.76-49.75h80.25l49.75,49.75L520.26,372.97z M454.82,366.84h62.9
		l30.5-30.5l-43.62-43.62h-62.9l43.61,43.62L454.82,366.84z"/>
	<path class="st3" d="M135.88,372.97H55.63L19,336.34l155.65-155.65h80.25L99.25,336.34L135.88,372.97z M58.17,366.84h62.9
		l-30.49-30.5l149.52-149.52h-62.9L27.67,336.34L58.17,366.84z"/>
	<path class="st3" d="M287.95,605.29L145.96,463.31h80.25l61.74,61.73l61.73-61.73h80.25L287.95,605.29z M160.77,469.44
		l127.17,127.18l127.17-127.18h-62.9l-64.27,64.27l-64.28-64.27H160.77z"/>
	<path class="st3" d="M378.11,157.55H197.79l90.16-90.16L378.11,157.55z M212.6,151.42h150.69l-75.35-75.35L212.6,151.42z"/>
	<path class="st3" d="M431.06,210.5H350.8L321,180.69h80.25L431.06,210.5z M353.34,204.37h62.9l-17.54-17.54h-62.9L353.34,204.37z"
		/>
</g>
<path class="st4" d="M292.16,373.57L292.16,373.57L292.16,373.57c0.15-0.37,0.3-0.74,0.45-1.1c0.1-0.26,0.22-0.52,0.32-0.78
	c0.12-0.27,0.23-0.54,0.35-0.8c4.11-9.78,10.51-18.04,18.43-22.61l2.24-1.29l0,0l272.06-157.13L858.07,32.71l0,0l2.24-1.29
	c7.92-4.57,15.88-4.6,22.5-1.02c0.18,0.09,0.36,0.19,0.54,0.28c0.18,0.1,0.36,0.19,0.54,0.3l35.92,20.71l-20.71,8.79l71.85,380.93
	c1.85,9.83,0.22,20.66-3.91,30.42c-0.11,0.28-0.23,0.55-0.34,0.82c-0.11,0.26-0.22,0.51-0.33,0.77
	c-4.11,9.78-10.51,18.05-18.43,22.62l-542.62,313.4l5,23.9l-34.02-19.71c-0.18-0.1-0.36-0.19-0.53-0.3
	c-6.64-3.55-11.64-10.55-13.49-20.38L288.7,402.9C286.92,393.44,288.37,383.05,292.16,373.57z"/>
<linearGradient id="SVGID_1_" gradientUnits="userSpaceOnUse" x1="-3160.7219" y1="98.1425" x2="-2381.3665" y2="98.1425" gradientTransform="matrix(-0.781 0.4511 0.1965 1.0417 -1518.3545 1590.3436)">
	<stop  offset="0" style="stop-color:#7BDAFF"/>
	<stop  offset="1" style="stop-color:#59BDEF"/>
</linearGradient>
<path class="st5" d="M434.63,833.29l548.6-316.85c16.59-9.58,26.65-35.29,22.48-57.41L933.19,74.54
	c-4.17-22.13-21.01-32.3-37.6-22.72L347,368.68c-16.59,9.58-26.65,35.29-22.48,57.41l72.52,384.48
	C401.21,832.71,418.04,842.88,434.63,833.29z"/>
<linearGradient id="SVGID_2_" gradientUnits="userSpaceOnUse" x1="-2199.6272" y1="512.0667" x2="-2623.9045" y2="51.9772" gradientTransform="matrix(-0.781 0.4511 0.1965 1.0417 -1518.3545 1590.3436)">
	<stop  offset="0.7677" style="stop-color:#F4EA43"/>
	<stop  offset="0.8191" style="stop-color:#F0E541"/>
	<stop  offset="0.8766" style="stop-color:#E6D83A"/>
	<stop  offset="0.937" style="stop-color:#D5C22F"/>
	<stop  offset="0.9991" style="stop-color:#BDA220"/>
	<stop  offset="1" style="stop-color:#BDA220"/>
</linearGradient>
<path class="st6" d="M349.24,367.39L621.3,210.25l85.25,451.98L436.87,832c-17.83,10.3-35.43,1.95-39.31-18.64L324,423.31
	C320.11,402.72,331.41,377.68,349.24,367.39z"/>
<linearGradient id="SVGID_3_" gradientUnits="userSpaceOnUse" x1="-3844.3367" y1="511.5748" x2="-4268.6099" y2="51.4899" gradientTransform="matrix(0.781 -0.4511 0.1965 1.0417 4095.0354 -1652.0623)">
	<stop  offset="0.7677" style="stop-color:#F4EA43"/>
	<stop  offset="0.8195" style="stop-color:#F0E541"/>
	<stop  offset="0.8774" style="stop-color:#E6D83A"/>
	<stop  offset="0.9383" style="stop-color:#D5C22F"/>
	<stop  offset="1" style="stop-color:#BDA320"/>
</linearGradient>
<path class="st7" d="M893.36,53.12L621.3,210.25l84.71,449.14l274.98-141.66c17.83-10.3,29.13-35.34,25.25-55.93L932.67,71.76
	C928.78,51.17,911.18,42.83,893.36,53.12z"/>
<linearGradient id="SVGID_4_" gradientUnits="userSpaceOnUse" x1="-2771.0383" y1="763.9541" x2="-2771.0383" y2="106.9896" gradientTransform="matrix(-0.781 0.4511 0.1965 1.0417 -1518.3545 1590.3436)">
	<stop  offset="0.7677" style="stop-color:#F4EA43"/>
	<stop  offset="0.8166" style="stop-color:#F0E541"/>
	<stop  offset="0.8712" style="stop-color:#E6D83A"/>
	<stop  offset="0.9286" style="stop-color:#D5C22F"/>
	<stop  offset="0.9877" style="stop-color:#BDA220"/>
	<stop  offset="1" style="stop-color:#B79B1C"/>
</linearGradient>
<path class="st8" d="M1002.78,491.14c-4.46,11.15-12.16,21.03-21.79,26.6L436.87,832c-9.63,5.56-19.18,5.64-26.56,1.33L654.1,384.17
	L1002.78,491.14z"/>
<path class="st9" d="M327.45,393.98c4.46-11.15,12.16-21.03,21.79-26.6L893.36,53.12c9.63-5.56,19.18-5.64,26.56-1.33L676.13,500.95
	L327.45,393.98z"/>
</svg>
